<?xml version="1.0" encoding="UTF-8"?>
<!DOCTYPE svg PUBLIC "-//W3C//DTD SVG 1.1//EN" "http://www.w3.org/Graphics/SVG/1.1/DTD/svg11.dtd">
<!-- Creator: CorelDRAW X7 -->
<svg xmlns="http://www.w3.org/2000/svg" xml:space="preserve" width="500mm" height="100mm" version="1.1" style="shape-rendering:geometricPrecision; text-rendering:geometricPrecision; image-rendering:optimizeQuality; fill-rule:evenodd; clip-rule:evenodd"
viewBox="0 0 50000 10000"
 xmlns:xlink="http://www.w3.org/1999/xlink">
 <defs>
  <style type="text/css">
   <![CDATA[
    .str0 {stroke:#FF3640;stroke-width:7.62}
    .fil3 {fill:black}
    .fil0 {fill:#E50713}
    .fil1 {fill:#E99B26}
    .fil2 {fill:#FF3640}
   ]]>
  </style>
 </defs>
 <g id="Layer_x0020_1">
  <metadata id="CorelCorpID_0Corel-Layer"/>
  <g id="_2121250782432">
   <g>
    <path class="fil0" d="M11470 6204l0 0zm184 51c73,-220 -64,-415 -218,-483 -151,-65 -1935,-32 -2179,-33l-7399 0c-250,0 -499,-1 -748,0 -571,0 -585,591 -240,755 133,63 543,37 716,37l9618 0c253,-2 386,-86 450,-276z"/>
    <path class="fil0" d="M3480 1188c257,-115 740,-265 1033,-308 200,-103 1244,-175 1576,-180 375,-6 1339,53 1599,155 339,42 824,205 1157,335l138 74c207,12 920,470 1082,585 162,117 331,251 460,377 101,98 361,365 377,449 61,38 35,14 87,84 19,26 42,65 62,96 269,431 452,881 457,1409 1,143 1,159 -99,218 -865,30 -1779,4 -2650,4l-7354 0c-164,0 -526,32 -583,-66 -146,-787 531,-1772 864,-2093 438,-422 1082,-897 1794,-1139zm7882 3460c191,-14 200,-87 304,-177 -12,-414 -3,-675 -151,-1064 -55,-143 -120,-294 -198,-435 -78,-139 -192,-281 -251,-406 -51,-13 -76,-83 -147,-168 -45,-54 -109,-116 -156,-161 -107,-107 -201,-207 -325,-309 -645,-531 -1279,-832 -2085,-1082 -97,-30 -433,-105 -484,-133 -419,-49 -779,-143 -1237,-165 -1243,-60 -2430,120 -3529,615 -1112,500 -2427,1557 -2462,3100 -12,503 402,392 990,390l8350 -1c413,2 988,32 1381,-4z"/>
    <path class="fil0" d="M762 6714l-82 106c-25,45 -37,100 -39,160 -6,117 18,273 40,382 132,629 575,1143 1176,1381 459,182 1035,129 1562,129 573,-1 1146,-1 1720,-1 1130,0 2264,8 3394,2 460,-3 1241,44 1647,-45 429,-95 851,-368 1058,-645 31,-45 18,-24 20,-56l-74 -107c43,-55 -59,-45 46,-46 25,-31 32,-15 -8,-32 -228,213 -324,454 -828,648 -419,162 -908,118 -1386,117l-5951 0c-521,3 -898,18 -1309,-191 -494,-252 -848,-737 -924,-1296 -51,-372 -19,-393 332,-392l8938 0c194,0 1318,-47 1396,67 95,363 -132,754 -244,1003 91,-76 -93,104 45,-58 18,-21 49,-46 71,-68l113 9c18,-13 5,3 28,-31 3,-5 12,-22 15,-28 2,-3 26,-63 26,-64 105,-271 264,-880 -86,-978 -156,-44 -8171,-13 -9216,-11 -365,0 -1191,-57 -1480,45z"/>
    <path class="fil0" d="M319 5274c-73,56 -207,33 -287,81l-7 88c214,117 541,-91 724,-163 51,-99 405,-268 578,-300 318,-59 519,-1 773,110 388,242 555,433 1173,380 123,-23 210,-46 331,-88 88,-29 276,-160 344,-205 124,-83 234,-149 400,-187 371,-85 671,1 923,167 262,172 446,318 863,320 432,2 610,-123 887,-304 839,-547 1340,62 1701,215 283,120 680,119 971,11 291,-109 434,-322 770,-406 887,-222 1117,554 1778,476 224,-152 -201,-127 -466,-261 -104,-53 -176,-110 -263,-168 -68,-45 -237,-129 -258,-152 -1279,-324 -1156,458 -2065,435 -199,-5 -465,-59 -613,-202l-24 -28c-7,-1 -377,-199 -404,-220 -263,-63 -478,-97 -761,-37 -281,60 -380,200 -566,261 -94,172 -542,243 -798,221 -328,-27 -508,-200 -727,-329 -841,-498 -1484,121 -1594,141 -10,38 23,21 -49,34 -32,44 -110,75 -164,95 -211,78 -518,84 -729,23 -305,-88 -451,-290 -732,-396 -929,-352 -1365,413 -1709,388z"/>
    <path class="fil1" d="M11246 7898c-38,8 -24,-3 -24,44 40,17 33,1 8,32 -105,1 -3,-9 -46,46l74 107c47,-30 39,-23 75,-69 27,-35 34,-49 54,-81 45,-69 64,-100 88,-196l-113 -9c-22,22 -53,47 -71,68 -138,162 46,-18 -45,58z"/>
    <path class="fil2" d="M8423 1681l-114 3c-7,135 29,156 157,156 17,-135 -14,-60 -43,-159z"/>
    <path class="fil2" d="M9543 3169c6,4 14,8 18,11l49 31c72,32 48,17 105,16 5,-137 -41,-152 -173,-146l1 88z"/>
    <path class="fil2" d="M10461 3684l-6 -80c-225,-199 -257,106 6,80z"/>
    <path class="fil2" d="M7805 2365l111 -25c10,-119 -53,-151 -165,-128 -3,123 26,57 54,153z"/>
    <path class="fil2" d="M7831 1393c3,-49 -7,-88 -11,-117 -87,-25 -70,-42 -159,-12 0,78 22,81 68,129l102 0z"/>
    <path class="fil2" d="M7489 2319c-169,-105 -161,177 32,119 4,-8 39,30 11,-67 -8,-29 -19,-37 -43,-52z"/>
    <path class="fil2" d="M9450 2212c49,37 91,77 179,45 4,-82 -30,-94 -84,-134l-84 1 3 12 -14 76z"/>
    <path class="fil2" d="M10895 3837c-2,-126 -48,-147 -176,-145 8,127 44,149 176,145z"/>
    <path class="fil2" d="M3541 2704c-23,24 -34,23 -44,55 -31,98 1,47 7,62 63,23 208,-2 142,-144l-105 27z"/>
    <path class="fil2" d="M3234 2600l-8 -69 -91 -15c0,1 -167,212 23,153 50,-15 47,-29 76,-69z"/>
    <path class="fil2" d="M4974 1267l6 7 -121 0c-45,54 -58,50 -55,137 103,9 93,10 167,-56l3 -88z"/>
    <path class="fil2" d="M10125 3622l-145 2c4,113 51,152 171,130 6,-73 -17,-71 -21,-114 -1,-9 -3,-12 -5,-18z"/>
    <path class="fil2" d="M7612 1403c4,109 55,161 158,130 14,-36 31,49 12,-49 -19,-94 -113,-88 -164,-90l-6 9z"/>
    <path class="fil2" d="M4921 1700c1,-32 -2,-52 14,-98 -118,-14 -200,17 -170,137 97,13 73,-8 156,-39z"/>
    <path class="fil2" d="M4795 1113c-24,87 -34,40 -46,148 111,9 181,-20 174,-131l-128 -17z"/>
    <path class="fil2" d="M4562 1886c-4,32 -6,25 -5,51 6,123 160,62 170,-61l-43 -35 -122 45z"/>
    <path class="fil2" d="M9046 2833l-38 -24 -82 11c-10,112 56,151 171,132 -5,-91 6,-67 -51,-119z"/>
    <path class="fil2" d="M8353 2883c0,-116 -50,-144 -169,-146 1,134 33,157 169,146z"/>
    <path class="fil2" d="M1820 2996c-1,114 59,82 140,65 48,-89 37,-54 33,-128 -151,-3 -110,44 -173,63z"/>
    <path class="fil2" d="M8018 2009l-14 -13c-86,-24 -70,-30 -136,-4 -20,86 57,163 160,122l-10 -105z"/>
    <path class="fil2" d="M2818 3003c135,-1 84,-7 171,-59l1 -85c-126,-7 -174,30 -172,144z"/>
    <path class="fil2" d="M7649 1821c60,22 90,52 185,49l-5 -84 -6 4c-45,-46 -61,-68 -156,-60l-18 91z"/>
    <path class="fil2" d="M2686 2257c109,39 195,-7 153,-130 -99,-9 -164,35 -153,130z"/>
    <path class="fil2" d="M4898 1993c120,14 210,-75 153,-131 -46,-46 -172,-1 -153,131z"/>
    <path class="fil2" d="M8251 2109c185,39 184,-48 48,-131l-78 4c-8,66 -13,14 4,77l26 50z"/>
    <path class="fil2" d="M2636 3104l-52 104c78,28 111,9 166,-10 1,-5 3,-11 4,-15l9 -101c-90,-8 -58,-20 -127,22z"/>
    <path class="fil2" d="M1419 3837c131,2 166,-19 172,-142 -128,-6 -167,13 -172,142z"/>
    <path class="fil2" d="M8596 2512c12,-110 -17,-66 -59,-133 -212,-20 -107,169 59,133z"/>
    <path class="fil2" d="M8295 2510c8,-114 -54,-144 -169,-127 5,113 58,162 169,127z"/>
    <path class="fil2" d="M2217 2610l7 -32c-119,-22 -206,16 -171,134 100,11 135,-25 164,-102z"/>
    <path class="fil2" d="M7525 2037l51 79 120 10 -2 -81c-61,-49 -62,-66 -163,-69l-6 61z"/>
    <path class="fil2" d="M3142 3185c-138,-26 -201,83 -154,128 44,43 169,-3 154,-128z"/>
    <path class="fil2" d="M3940 2677c122,13 164,-18 162,-137 -122,-7 -171,10 -162,137z"/>
    <path class="fil2" d="M4468 2338l-9 2 -1 -86c-119,-18 -164,21 -173,126 77,29 122,-13 183,-42z"/>
    <path class="fil2" d="M7947 1548c28,95 50,129 168,104 4,-56 4,-76 -34,-107 -120,-99 -133,25 -133,25l-1 -22z"/>
    <path class="fil2" d="M9959 3391l2 -7 129 12c19,-126 -73,-168 -169,-123 6,50 22,78 38,118z"/>
    <path class="fil2" d="M7446 1793c8,-122 -45,-136 -165,-140 -6,126 45,150 165,140z"/>
    <path class="fil2" d="M1917 3295c0,5 -2,13 -2,16 -3,132 52,80 136,75 18,-43 28,-62 28,-118 -69,-28 -108,6 -162,27z"/>
    <path class="fil2" d="M8890 2401l5 10 -111 -5c-7,117 51,171 167,129 -2,-77 -6,-44 -61,-134z"/>
    <path class="fil2" d="M4231 2761c121,-8 176,-20 162,-146 -94,-5 -96,11 -162,56l0 90z"/>
    <path class="fil2" d="M8683 2196c17,-113 -47,-151 -160,-139 -12,109 47,153 160,139z"/>
    <path class="fil2" d="M10181 2996c3,-111 -50,-164 -165,-126 -3,108 42,139 165,126z"/>
    <path class="fil2" d="M4680 2210c92,29 168,-17 151,-126 -115,-25 -189,29 -151,126z"/>
    <path class="fil2" d="M10748 3425c-4,-104 -55,-163 -167,-126 -8,119 43,137 167,126z"/>
    <path class="fil2" d="M3900 2066c118,12 174,-17 168,-128 -117,-31 -170,20 -168,128z"/>
    <path class="fil2" d="M2131 2997c109,9 175,-14 167,-126 -117,-40 -166,15 -167,126z"/>
    <path class="fil2" d="M9238 2656c30,-83 -45,-136 -150,-123 -36,98 51,141 101,142 101,1 2,8 49,-19z"/>
    <path class="fil2" d="M9669 2962l7 10c48,16 84,29 150,26 2,-115 -44,-147 -167,-138l10 102z"/>
    <path class="fil2" d="M2164 3754c110,25 187,-22 156,-132 -105,-11 -168,29 -156,132z"/>
    <path class="fil2" d="M10114 2585c-51,54 36,142 147,125 40,-132 -108,-166 -147,-125z"/>
    <path class="fil2" d="M2681 2736c117,29 177,-11 165,-125 -99,-34 -163,29 -165,125z"/>
    <path class="fil2" d="M4203 1986c108,30 185,-27 158,-135 -104,-5 -172,35 -158,135z"/>
    <path class="fil2" d="M4465 1525c114,21 178,-18 166,-126 -118,-24 -164,17 -166,126z"/>
    <path class="fil2" d="M5051 2315c116,11 168,-25 170,-130 -118,-28 -174,20 -170,130z"/>
    <path class="fil2" d="M1568 3424c106,15 166,-8 166,-125 -114,-36 -169,18 -166,125z"/>
    <path class="fil2" d="M10396 3069c80,28 59,17 85,-28l-7 -64c-44,-32 -67,-49 -150,-43 -10,104 3,101 72,135z"/>
    <path class="fil2" d="M2481 2903l6 83c119,32 165,-11 162,-127 -84,-5 -116,20 -168,44z"/>
    <path class="fil2 str0" d="M9756 2408c-5,101 50,135 156,130 17,-113 -49,-174 -156,-130z"/>
    <path class="fil2" d="M2739 2408c106,41 170,-20 154,-131 -109,-6 -159,24 -154,131z"/>
    <path class="fil2" d="M9327 2925c35,41 36,28 43,67l113 3c37,-99 -39,-135 -135,-140 -21,29 -25,-10 -21,70z"/>
    <path class="fil2" d="M1874 3682c104,14 178,-39 146,-125 -91,-39 -175,12 -146,125z"/>
    <path class="fil2" d="M9333 3331c3,-86 -25,-171 -160,-145 -16,115 52,132 160,145z"/>
    <path class="fil2" d="M5138 1665c123,8 169,-22 164,-141 -114,-4 -161,28 -164,141z"/>
    <path class="fil2" d="M8487 2679c0,103 49,135 157,131 19,-119 -60,-170 -157,-131z"/>
    <path class="fil2" d="M2404 2538c106,4 160,-28 154,-130 -104,-41 -173,16 -154,130z"/>
    <path class="fil2" d="M3642 2408c105,48 178,-13 155,-127 -104,-5 -152,27 -155,127z"/>
    <path class="fil2" d="M9468 2611c-11,107 48,136 158,137 5,-111 -53,-170 -158,-137z"/>
    <path class="fil2" d="M10406 3392l-78 -139c-3,-3 -9,-10 -14,-15l-80 30c-6,136 77,142 172,124z"/>
    <path class="fil2" d="M4108 1610l5 101 133 -28 38 -111c-88,-8 -120,14 -176,38z"/>
    <path class="fil2" d="M2341 3383l24 -28 30 -78c-94,-51 -188,1 -171,119l117 -13z"/>
    <path class="fil2" d="M4012 2264l-33 120c113,18 148,-17 181,-89l-39 -41 -109 10z"/>
    <path class="fil2" d="M9447 2408c70,13 65,24 130,0 4,-110 15,-43 -36,-85l-12 63c-70,-14 -38,4 -84,-53l64 -41 -93 -18c-7,68 16,104 31,134z"/>
    <path class="fil2 str0" d="M9541 2323c-7,-35 31,-21 -32,-31l-64 41c46,57 14,39 84,53l12 -63z"/>
   </g>
   <g>
    <path class="fil0" d="M15352 5187c776,-69 1352,128 1435,702 88,611 -364,948 -1098,948l-117 3 -220 -21 0 -1632zm0 -2341c743,-75 1218,148 1186,747 -30,546 -468,708 -1183,672l-3 -1419zm2128 1704c1074,-730 813,-1758 115,-2241 -917,-634 -2420,-462 -3856,-462l28 5976c1579,0 3275,204 4154,-588 974,-878 524,-2213 -602,-2561l161 -124z"/>
    <path class="fil3" d="M45600 7823c-37,-177 -1117,-1903 -1354,-2261 -629,-947 -593,-764 -133,-1478l885 -1490c147,-254 327,-491 426,-745l-1710 -1c-80,263 -784,1433 -1016,1857 -105,192 -256,398 -351,573l-4 -2431 -1675 0 0 5976 1678 0 5 -2536 1514 2536 1735 0z"/>
    <path class="fil0" d="M29130 4335c1007,-403 1097,1934 412,2257 -944,445 -1300,-1902 -412,-2257zm1049 -467c-184,-86 -392,-428 -931,-521 -2632,-453 -2873,4303 -241,4232 629,-18 708,-316 992,-437 8,397 60,1017 -235,1255 -162,131 -513,153 -724,22 -169,-104 -222,-260 -329,-460l-1359 59c-205,1108 2657,2320 3854,545 416,-617 284,-1723 284,-2497 0,-674 96,-2055 -25,-2647l-1054 -2 -232 451z"/>
    <path class="fil0" d="M19110 3420c-88,574 -72,3089 128,3556 565,1315 2334,1086 2702,390 68,40 83,0 179,215 42,94 57,150 103,242l1096 0 -18 -4405 -1480 11c-149,1247 385,3419 -616,3414 -749,-4 -610,-957 -610,-1477 0,-599 51,-1354 -11,-1944l-1473 -2z"/>
    <path class="fil3" d="M45756 3431c-71,671 -76,3031 151,3563 370,870 1427,1123 2171,805 283,-120 375,-275 596,-428l226 454 1075 -17 -8 -4386 -1470 -1c-198,1267 422,3453 -656,3422 -714,-21 -596,-939 -596,-1477 0,-571 61,-1404 -16,-1947l-1473 12z"/>
    <path class="fil0" d="M33646 5220c155,-1274 1383,-1287 1484,1l-1484 -1zm1404 1357c-855,902 -1429,-120 -1385,-582 527,-1 2463,67 2818,-40 507,-2998 -3558,-3605 -4182,-950 -293,1249 284,2339 1260,2759 564,242 1401,187 1892,-68 305,-158 926,-725 918,-1143l-1265 -34 -56 58z"/>
    <path class="fil0" d="M25681 7809c71,-600 12,-1443 11,-2069 -1,-782 152,-1218 1188,-1173l0 -1201c-472,-94 -870,0 -1149,281 -66,65 -58,77 -123,137 -125,117 -17,37 -123,96l-198 -460 -1090 1 21 4403 1463 -15z"/>
    <path class="fil0" d="M38761 7808c201,-1866 -583,-3299 1198,-3242l0 -1198c-935,-200 -1150,372 -1399,513l-195 -460 -1087 -1 21 4404 1462 -16z"/>
   </g>
  </g>
 </g>
</svg>
