<?xml version="1.0" encoding="UTF-8"?>
<!DOCTYPE svg PUBLIC "-//W3C//DTD SVG 1.1//EN" "http://www.w3.org/Graphics/SVG/1.1/DTD/svg11.dtd">
<!-- Creator: CorelDRAW X7 -->
<svg xmlns="http://www.w3.org/2000/svg" xml:space="preserve" width="228.059mm" height="40.756mm" version="1.1" style="shape-rendering:geometricPrecision; text-rendering:geometricPrecision; image-rendering:optimizeQuality; fill-rule:evenodd; clip-rule:evenodd"
viewBox="0 0 22806 4076"
 xmlns:xlink="http://www.w3.org/1999/xlink">
 <defs>
  <style type="text/css">
   <![CDATA[
    .str0 {stroke:#FF3640;stroke-width:7.62}
    .fil0 {fill:#E50713}
    .fil1 {fill:#E99B26}
    .fil2 {fill:#FF3640}
    .fil3 {fill:white}
   ]]>
  </style>
 </defs>
 <g id="Layer_x0020_1">
  <metadata id="CorelCorpID_0Corel-Layer"/>
  <g id="_2121247895440">
   <g>
    <path class="fil0" d="M5226 2588l0 0zm83 23c34,-101 -29,-190 -99,-221 -69,-30 -883,-14 -995,-15l-3378 0c-114,0 -228,0 -342,0 -260,0 -267,270 -109,345 61,29 248,17 327,17l4391 0c116,-1 176,-39 205,-126z"/>
    <path class="fil0" d="M1578 297c117,-52 337,-121 471,-140 91,-47 568,-80 720,-82 171,-3 611,24 730,71 154,18 376,93 528,152l63 34c94,6 420,214 494,267 74,54 151,115 210,172 46,45 165,167 172,206 28,17 16,6 40,38 9,11 19,29 28,43 123,197 207,403 209,644 0,65 1,72 -45,99 -395,14 -813,2 -1210,2l-3358 0c-75,0 -240,15 -266,-30 -67,-359 242,-809 394,-956 200,-192 495,-409 820,-520zm3598 1580c87,-6 92,-40 139,-81 -6,-189 -1,-308 -69,-485 -25,-66 -55,-135 -91,-199 -35,-64 -87,-128 -114,-185 -23,-6 -35,-38 -67,-77 -21,-25 -50,-53 -71,-74 -49,-48 -92,-94 -149,-141 -294,-242 -583,-379 -952,-494 -44,-13 -197,-48 -220,-61 -192,-22 -356,-65 -566,-75 -567,-27 -1109,55 -1610,281 -508,228 -1109,711 -1125,1415 -5,230 184,179 452,178l3813 0c188,1 451,15 630,-2z"/>
    <path class="fil0" d="M336 2820l-37 49c-11,21 -17,45 -18,73 -2,53 8,124 19,174 60,287 262,522 536,631 210,83 473,58 714,58 261,0 523,0 785,0 516,0 1034,4 1550,1 210,-1 566,20 752,-21 195,-43 388,-167 483,-294 14,-21 8,-11 9,-25l-34 -50c19,-24 -27,-20 21,-20 12,-14 14,-7 -4,-15 -104,97 -147,208 -378,296 -191,74 -414,54 -632,53l-2718 0c-237,1 -410,9 -597,-87 -226,-115 -388,-337 -422,-592 -23,-169 -9,-179 151,-179l4081 0c89,0 602,-21 638,31 43,166 -61,344 -112,458 42,-35 -42,48 21,-27 8,-9 22,-21 32,-30l52 4c8,-7 2,1 13,-15 1,-2 5,-10 7,-12 0,-2 11,-29 11,-30 48,-123 121,-401 -39,-446 -71,-20 -3731,-6 -4208,-5 -166,0 -543,-26 -676,20z"/>
    <path class="fil0" d="M134 2163c-33,26 -94,15 -131,37l-3 40c98,54 247,-42 331,-74 23,-46 185,-123 264,-137 145,-27 237,-1 353,50 177,110 253,197 535,174 56,-11 96,-22 151,-41 40,-13 126,-73 157,-94 57,-37 107,-68 183,-85 169,-39 306,1 421,76 120,79 204,146 394,147 198,1 279,-57 405,-139 383,-250 612,28 777,98 129,55 310,54 443,5 133,-50 198,-147 352,-185 405,-102 510,253 812,217 102,-70 -92,-58 -213,-119 -48,-24 -80,-51 -120,-77 -31,-20 -109,-59 -118,-69 -584,-148 -528,209 -943,198 -91,-2 -212,-27 -280,-92l-11 -13c-3,0 -172,-91 -184,-100 -120,-29 -218,-45 -347,-17 -129,27 -174,91 -259,119 -43,79 -247,111 -364,101 -150,-12 -233,-91 -332,-150 -384,-228 -678,55 -728,64 -5,18 10,10 -22,16 -15,20 -51,34 -75,43 -97,35 -237,38 -333,11 -140,-41 -206,-133 -334,-181 -425,-161 -624,188 -781,177z"/>
    <path class="fil1" d="M5123 3361c-17,3 -11,-1 -11,20 18,8 16,1 4,15 -48,0 -2,-4 -21,20l34 50c21,-14 18,-11 34,-32 12,-16 15,-22 25,-37 20,-32 29,-45 40,-89l-52 -4c-10,9 -24,21 -32,30 -63,75 21,-8 -21,27z"/>
    <path class="fil2" d="M3835 522l-53 2c-3,62 14,71 72,71 8,-62 -6,-27 -19,-73z"/>
    <path class="fil2" d="M4346 1202c3,1 6,4 8,5l22 14c33,14 22,8 48,7 2,-62 -18,-69 -79,-66l1 40z"/>
    <path class="fil2" d="M4765 1437l-3 -37c-103,-91 -117,49 3,37z"/>
    <path class="fil2" d="M3552 835l51 -12c4,-54 -24,-69 -75,-58 -2,56 11,26 24,70z"/>
    <path class="fil2" d="M3564 391c1,-23 -3,-40 -5,-54 -40,-11 -32,-19 -73,-5 0,36 10,37 32,59l46 0z"/>
    <path class="fil2" d="M3408 814c-77,-48 -73,81 15,54 1,-4 18,14 5,-31 -4,-13 -9,-16 -20,-23z"/>
    <path class="fil2" d="M4303 765c23,17 42,35 82,20 2,-37 -14,-43 -38,-61l-39 1 1 5 -6 35z"/>
    <path class="fil2" d="M4963 1507c-1,-58 -22,-67 -80,-66 3,58 20,68 80,66z"/>
    <path class="fil2" d="M1606 990c-11,10 -16,10 -21,24 -14,46 1,22 3,29 29,10 95,-1 65,-66l-47 13z"/>
    <path class="fil2" d="M1465 942l-3 -31 -42 -7c0,0 -76,97 11,70 22,-7 21,-13 34,-32z"/>
    <path class="fil2" d="M2260 334l3 3 -56 -1c-20,25 -26,23 -25,63 47,4 42,5 76,-26l2 -39z"/>
    <path class="fil2" d="M4612 1409l-67 1c2,51 24,69 78,59 3,-33 -8,-33 -9,-52 -1,-4 -2,-6 -2,-8z"/>
    <path class="fil2" d="M3464 395c2,50 25,74 72,60 7,-16 14,22 6,-23 -9,-42 -52,-40 -75,-41l-3 4z"/>
    <path class="fil2" d="M2235 531c1,-15 0,-24 7,-45 -54,-6 -91,8 -78,63 45,6 34,-4 71,-18z"/>
    <path class="fil2" d="M2178 263c-11,40 -16,18 -21,68 51,4 83,-10 80,-60l-59 -8z"/>
    <path class="fil2" d="M2071 616c-1,15 -2,11 -2,23 3,57 73,29 78,-27l-20 -16 -56 20z"/>
    <path class="fil2" d="M4119 1048l-17 -10 -38 4c-5,51 26,69 78,61 -2,-42 3,-31 -23,-55z"/>
    <path class="fil2" d="M3803 1071c0,-53 -23,-65 -78,-66 1,61 15,71 78,66z"/>
    <path class="fil2" d="M820 1123c-1,52 26,37 64,30 22,-41 16,-25 14,-59 -68,-1 -50,20 -78,29z"/>
    <path class="fil2" d="M3649 672l-6 -6c-39,-11 -32,-13 -62,-1 -9,39 26,74 73,55l-5 -48z"/>
    <path class="fil2" d="M1275 1126c62,0 39,-3 78,-27l1 -39c-58,-3 -79,14 -79,66z"/>
    <path class="fil2" d="M3481 587c27,10 41,23 85,22l-3 -39 -2 2c-21,-21 -28,-31 -72,-27l-8 42z"/>
    <path class="fil2" d="M1215 785c50,18 89,-3 70,-59 -45,-4 -75,16 -70,59z"/>
    <path class="fil2" d="M2225 665c55,6 96,-34 70,-60 -21,-21 -79,0 -70,60z"/>
    <path class="fil2" d="M3756 718c84,18 84,-22 22,-60l-36 2c-4,30 -6,6 2,35l12 23z"/>
    <path class="fil2" d="M1192 1172l-24 47c36,13 51,5 76,-4 1,-2 2,-5 2,-7l4 -46c-41,-3 -26,-9 -58,10z"/>
    <path class="fil2" d="M637 1507c59,1 76,-9 78,-65 -58,-3 -76,6 -78,65z"/>
    <path class="fil2" d="M3914 902c5,-50 -8,-30 -27,-61 -98,-9 -49,77 27,61z"/>
    <path class="fil2" d="M3776 901c3,-52 -25,-66 -77,-58 2,52 26,74 77,58z"/>
    <path class="fil2" d="M1001 947l3 -15c-54,-10 -94,7 -78,61 46,5 62,-11 75,-46z"/>
    <path class="fil2" d="M3424 685l24 36 55 5 -1 -37c-28,-23 -29,-30 -75,-32l-3 28z"/>
    <path class="fil2" d="M1423 1209c-63,-12 -92,38 -70,59 20,19 77,-2 70,-59z"/>
    <path class="fil2" d="M1787 977c56,6 76,-8 74,-62 -55,-4 -77,4 -74,62z"/>
    <path class="fil2" d="M2029 822l-5 1 0 -39c-54,-8 -75,10 -79,58 35,13 56,-6 84,-20z"/>
    <path class="fil2" d="M3617 462c13,43 23,58 77,47 2,-25 1,-34 -16,-49 -54,-45 -61,12 -61,12l0 -10z"/>
    <path class="fil2" d="M4536 1303l1 -3 59 5c8,-57 -34,-76 -78,-56 3,23 10,36 18,54z"/>
    <path class="fil2" d="M3388 574c4,-56 -20,-62 -75,-64 -3,57 20,68 75,64z"/>
    <path class="fil2" d="M864 1259c0,3 -1,6 -1,8 -1,60 24,36 62,34 8,-20 13,-28 13,-54 -32,-13 -50,3 -74,12z"/>
    <path class="fil2" d="M4048 851l2 5 -51 -2c-3,53 23,78 77,59 -2,-36 -3,-21 -28,-62z"/>
    <path class="fil2" d="M1920 1016c56,-4 81,-10 74,-67 -42,-2 -43,5 -73,26l-1 41z"/>
    <path class="fil2" d="M3953 757c8,-51 -21,-68 -73,-63 -6,50 21,70 73,63z"/>
    <path class="fil2" d="M4637 1123c2,-51 -23,-75 -75,-58 -1,50 19,64 75,58z"/>
    <path class="fil2" d="M2126 764c41,13 76,-8 69,-58 -53,-11 -87,14 -69,58z"/>
    <path class="fil2" d="M4896 1319c-2,-48 -25,-75 -76,-58 -4,55 19,63 76,58z"/>
    <path class="fil2" d="M1769 698c54,6 80,-8 77,-58 -53,-14 -78,9 -77,58z"/>
    <path class="fil2" d="M962 1123c50,5 79,-6 76,-57 -53,-18 -76,7 -76,57z"/>
    <path class="fil2" d="M4206 968c14,-38 -20,-62 -68,-57 -16,45 23,65 46,65 46,1 1,4 22,-8z"/>
    <path class="fil2" d="M4403 1107l3 5c22,7 39,13 69,12 1,-53 -20,-68 -76,-63l4 46z"/>
    <path class="fil2" d="M977 1469c50,12 85,-10 71,-60 -48,-5 -77,13 -71,60z"/>
    <path class="fil2" d="M4606 935c-23,25 17,65 68,57 18,-60 -50,-76 -68,-57z"/>
    <path class="fil2" d="M1213 1004c53,13 80,-5 75,-57 -45,-15 -74,13 -75,57z"/>
    <path class="fil2" d="M1908 662c49,13 84,-12 72,-62 -48,-2 -79,16 -72,62z"/>
    <path class="fil2" d="M2027 451c52,10 82,-8 76,-57 -54,-11 -75,7 -76,57z"/>
    <path class="fil2" d="M2295 812c53,5 76,-12 77,-59 -54,-13 -79,9 -77,59z"/>
    <path class="fil2" d="M704 1318c49,7 76,-3 76,-57 -52,-16 -77,8 -76,57z"/>
    <path class="fil2" d="M4735 1156c37,13 27,8 39,-12l-3 -30c-20,-14 -31,-22 -69,-20 -4,48 2,47 33,62z"/>
    <path class="fil2" d="M1122 1081l2 37c55,15 75,-5 74,-58 -38,-2 -53,10 -76,21z"/>
    <path class="fil2 str0" d="M4443 854c-2,46 23,62 71,60 8,-52 -22,-80 -71,-60z"/>
    <path class="fil2" d="M1239 854c49,19 78,-9 71,-60 -50,-2 -73,11 -71,60z"/>
    <path class="fil2" d="M4247 1091c16,18 16,12 20,30l52 1c16,-45 -18,-61 -62,-63 -10,13 -12,-5 -10,32z"/>
    <path class="fil2" d="M844 1436c48,6 82,-18 67,-57 -41,-18 -80,5 -67,57z"/>
    <path class="fil2" d="M4250 1276c1,-40 -12,-78 -73,-66 -7,52 23,60 73,66z"/>
    <path class="fil2" d="M2335 515c56,4 77,-10 75,-64 -53,-2 -74,12 -75,64z"/>
    <path class="fil2" d="M3864 978c-1,47 22,62 71,60 9,-55 -27,-78 -71,-60z"/>
    <path class="fil2" d="M1086 914c49,1 73,-13 71,-60 -48,-19 -79,8 -71,60z"/>
    <path class="fil2" d="M1651 854c48,22 82,-6 71,-58 -47,-2 -69,13 -71,58z"/>
    <path class="fil2" d="M4311 947c-4,49 22,62 73,63 2,-51 -24,-78 -73,-63z"/>
    <path class="fil2" d="M4740 1304l-36 -64c-1,-1 -4,-4 -6,-6l-37 13c-3,62 35,65 79,57z"/>
    <path class="fil2" d="M1864 490l3 46 60 -12 18 -51c-41,-4 -55,6 -81,17z"/>
    <path class="fil2" d="M1058 1299l10 -12 14 -36c-43,-23 -86,1 -78,55l54 -7z"/>
    <path class="fil2" d="M1821 789l-16 54c52,9 68,-7 83,-40l-18 -19 -49 5z"/>
    <path class="fil2" d="M4302 854c32,6 29,12 59,0 2,-50 7,-19 -16,-38l-6 28c-32,-6 -17,2 -38,-24l29 -19 -42 -8c-4,31 7,48 14,61z"/>
    <path class="fil2 str0" d="M4345 816c-3,-16 14,-10 -15,-15l-29 19c21,26 6,18 38,24l6 -28z"/>
   </g>
   <g>
    <path class="fil3" d="M6998 2123c354,-31 617,59 655,321 40,279 -166,432 -501,432l-54 2 -100 -10 0 -745zm0 -1068c339,-35 556,67 541,341 -13,249 -213,323 -539,306l-2 -647zm972 777c490,-333 371,-802 52,-1023 -419,-289 -1105,-211 -1761,-211l13 2729c721,0 1496,93 1897,-269 445,-401 239,-1010 -275,-1169l74 -57z"/>
    <path class="fil3" d="M20808 3327c-16,-81 -510,-869 -618,-1033 -287,-432 -271,-348 -61,-674l405 -681c66,-116 149,-224 194,-340l-781 -1c-36,121 -358,655 -464,849 -47,87 -117,181 -160,261l-2 -1110 -764 0 -1 2729 767 0 2 -1158 691 1158 792 0z"/>
    <path class="fil3" d="M13288 1734c460,-184 501,883 189,1031 -431,203 -594,-869 -189,-1031zm479 -213c-83,-39 -179,-196 -424,-238 -1202,-207 -1312,1965 -111,1932 288,-8 323,-144 453,-199 4,181 28,464 -107,573 -74,59 -234,69 -331,10 -77,-48 -101,-119 -150,-210l-620 27c-94,506 1213,1059 1759,249 190,-282 130,-787 130,-1140 0,-308 44,-939 -11,-1209l-482 -1 -106 206z"/>
    <path class="fil3" d="M8714 1316c-40,262 -33,1411 58,1624 258,600 1066,496 1234,178 31,18 38,0 82,98 19,43 26,69 47,111l500 0 -8 -2011 -676 5c-68,569 176,1561 -281,1558 -342,-2 -279,-437 -279,-674 0,-274 23,-618 -5,-888l-672 -1z"/>
    <path class="fil3" d="M20880 1322c-33,306 -35,1383 68,1626 170,397 652,513 992,368 129,-55 171,-126 272,-196l103 207 491 -7 -4 -2002 -671 -1c-90,578 193,1577 -299,1562 -326,-9 -273,-429 -273,-674 0,-261 28,-641 -7,-889l-672 6z"/>
    <path class="fil3" d="M15351 2138c70,-582 631,-587 677,1l-677 -1zm641 620c-391,412 -653,-55 -633,-266 241,0 1125,30 1287,-18 231,-1369 -1625,-1646 -1909,-434 -134,570 129,1068 574,1260 258,110 640,85 865,-31 139,-72 422,-331 419,-522l-578 -16 -25 27z"/>
    <path class="fil3" d="M11714 3320c32,-274 5,-658 5,-944 -1,-357 69,-556 542,-536l0 -548c-215,-43 -397,0 -524,128 -30,30 -27,35 -56,63 -57,53 -8,17 -57,44l-90 -210 -497 0 9 2010 668 -7z"/>
    <path class="fil3" d="M17686 3320c92,-852 -266,-1507 547,-1481l0 -546c-427,-92 -525,170 -639,234l-89 -210 -496 0 9 2010 668 -7z"/>
   </g>
  </g>
 </g>
</svg>
