<?xml version="1.0" encoding="UTF-8"?>
<!DOCTYPE svg PUBLIC "-//W3C//DTD SVG 1.1//EN" "http://www.w3.org/Graphics/SVG/1.1/DTD/svg11.dtd">
<!-- Creator: CorelDRAW X7 -->
<svg xmlns="http://www.w3.org/2000/svg" xml:space="preserve" width="50px" height="50px" version="1.1" style="shape-rendering:geometricPrecision; text-rendering:geometricPrecision; image-rendering:optimizeQuality; fill-rule:evenodd; clip-rule:evenodd"
viewBox="0 0 50 50"
 xmlns:xlink="http://www.w3.org/1999/xlink">
 <defs>
  <style type="text/css">
   <![CDATA[
    .str0 {stroke:#FCBB17;stroke-width:0.3}
    .fil0 {fill:#DB0007}
    .fil1 {fill:#FCBB17}
   ]]>
  </style>
 </defs>
 <g id="Layer_x0020_1">
  <metadata id="CorelCorpID_0Corel-Layer"/>
  <rect class="fil0" width="50" height="50"/>
  <g id="_2424873013808">
   <path class="fil1" d="M45 31l0 0zm0 0c1,-1 0,-2 0,-2 -1,0 -8,0 -9,0l-27 0c-1,0 -2,0 -3,0 -2,0 -2,2 -1,3 1,0 2,0 3,0l36 0c1,0 1,-1 1,-1z"/>
   <path class="fil1" d="M15 12c1,0 3,-1 4,-1 1,-1 4,-1 6,-1 1,0 5,0 6,1 1,0 3,0 4,1l0 0c1,0 4,2 4,2 1,1 2,1 2,2 1,0 1,1 2,1 0,1 0,1 0,1 0,0 0,0 0,0 1,2 2,3 2,5 0,1 0,1 -1,1 -3,0 -6,0 -9,0l-28 0c0,0 -2,0 -2,0 0,-3 2,-7 3,-8 2,-1 4,-3 7,-4zm29 13c1,0 1,-1 1,-1 0,-1 0,-2 0,-4 0,0 -1,-1 -1,-1 0,-1 -1,-1 -1,-2 0,0 0,0 0,-1 -1,0 -1,0 -1,0 0,-1 -1,-1 -1,-1 -3,-2 -5,-3 -8,-4 0,0 -1,-1 -2,-1 -1,0 -3,0 -4,0 -5,-1 -9,0 -13,2 -4,2 -9,6 -9,11 0,2 1,2 3,2l31 0c2,0 4,0 5,0z"/>
   <path class="fil1" d="M5 32l0 1c0,0 0,0 0,0 0,1 0,1 0,2 0,2 2,4 4,5 2,1 4,0 6,0 2,0 4,0 6,0 4,0 9,0 13,0 1,0 4,1 6,0 1,0 3,-1 4,-2 0,0 0,0 0,0l0 -1c0,0 -1,0 0,0 0,0 0,0 0,0 -1,1 -1,2 -3,2 -2,1 -4,1 -5,1l-23 0c-1,0 -3,0 -4,-1 -2,-1 -3,-3 -4,-5 0,-1 0,-1 1,-1l34 0c0,0 4,0 5,0 0,1 -1,3 -1,4 0,0 -1,0 0,0 0,0 0,-1 0,-1l1 0c0,0 0,0 0,0 0,0 0,0 0,0 0,0 0,0 0,0 0,-1 1,-3 0,-4 -1,0 -31,0 -35,0 -1,0 -4,0 -5,0z"/>
   <path class="fil1" d="M3 27c0,0 0,0 -1,0l0 1c1,0 2,-1 3,-1 0,0 1,-1 2,-1 1,0 2,0 3,0 1,1 2,2 4,2 1,0 1,0 2,-1 0,0 1,0 1,0 0,-1 1,-1 1,-1 2,0 3,0 4,1 1,0 1,1 3,1 1,0 2,-1 3,-1 3,-2 5,0 6,1 2,0 3,0 4,0 1,-1 2,-2 3,-2 3,-1 4,2 6,2 1,-1 0,-1 -1,-1 -1,0 -1,-1 -1,-1 0,0 -1,0 -1,0 -5,-2 -4,1 -8,1 -1,0 -2,0 -2,0l0 -1c0,0 -2,0 -2,0 -1,-1 -1,-1 -2,-1 -2,1 -2,1 -3,1 0,1 -2,1 -3,1 -1,0 -1,0 -2,-1 -3,-2 -6,0 -6,1 0,0 0,0 0,0 0,0 -1,0 -1,0 -1,0 -2,0 -3,0 -1,0 -1,-1 -2,-1 -4,-2 -5,1 -7,1z"/>
   <path class="fil1" d="M44 37c0,0 0,0 0,0 0,0 0,0 0,0 -1,0 0,0 0,0l0 1c0,0 0,0 0,-1 0,0 0,0 0,0 1,0 1,0 1,-1l-1 0c0,0 0,1 0,1 -1,0 0,0 0,0z"/>
   <path class="fil1" d="M33 14l0 0c0,0 0,0 1,0 0,0 -1,0 -1,0z"/>
   <path class="fil1" d="M38 19c0,0 0,0 0,0l0 0c0,1 0,1 0,1 0,-1 0,-1 0,-1l0 0z"/>
   <path class="fil1" d="M41 21l0 0c-1,-1 -1,0 0,0z"/>
   <path class="fil1" d="M31 16l0 0c1,0 0,0 0,0 0,0 0,0 0,0z"/>
   <path class="fil1" d="M31 13c0,0 0,-1 0,-1 0,0 0,0 0,0 0,1 0,1 0,1l0 0z"/>
   <path class="fil1" d="M30 16c-1,0 -1,1 0,1 0,0 0,0 0,-1 0,0 0,0 0,0z"/>
   <path class="fil1" d="M37 16c0,0 1,0 1,0 0,0 0,0 0,-1l-1 0 0 0 0 1z"/>
   <path class="fil1" d="M43 22c0,-1 -1,-1 -1,-1 0,1 0,1 1,1z"/>
   <path class="fil1" d="M15 18c0,0 0,0 0,0 0,0 0,0 0,0 0,0 1,0 1,-1l-1 1z"/>
   <path class="fil1" d="M14 17l0 0 0 0c0,0 -1,1 0,0 0,0 0,0 0,0z"/>
   <path class="fil1" d="M21 12l0 0 -1 0c0,0 0,0 0,1 0,0 0,0 1,0l0 -1z"/>
   <path class="fil1" d="M40 21l-1 0c0,0 0,1 1,0 0,0 0,0 0,0 0,0 0,0 0,0z"/>
   <path class="fil1" d="M30 13c0,0 1,0 1,0 0,0 0,0 0,0 0,0 0,0 -1,0l0 0z"/>
   <path class="fil1" d="M20 14c0,0 0,0 0,-1 0,0 0,1 0,1 0,0 0,0 0,0z"/>
   <path class="fil1" d="M20 12c0,0 0,0 0,0 0,0 0,0 0,0l0 0z"/>
   <path class="fil1" d="M19 15c0,0 0,0 0,0 0,0 1,0 1,0l0 -1 -1 1z"/>
   <path class="fil1" d="M36 18l0 0 -1 0c0,0 0,1 1,0 0,0 0,0 0,0z"/>
   <path class="fil1" d="M33 18c0,0 0,0 -1,0 0,0 1,0 1,0z"/>
   <path class="fil1" d="M9 19c0,0 0,0 0,0 1,0 1,0 1,-1 -1,0 -1,1 -1,1z"/>
   <path class="fil1" d="M32 15l0 0c-1,0 0,0 -1,0 0,0 1,1 1,0l0 0z"/>
   <path class="fil1" d="M13 19c0,0 0,0 0,-1l0 0c0,0 0,0 0,1z"/>
   <path class="fil1" d="M30 14c1,0 1,0 1,0l0 0 0 0c0,0 0,0 0,0l-1 0z"/>
   <path class="fil1" d="M12 16c1,0 1,0 1,-1 -1,0 -1,1 -1,1z"/>
   <path class="fil1" d="M20 15c1,0 1,0 1,-1 0,0 -1,0 -1,1z"/>
   <path class="fil1" d="M33 15c0,1 0,0 0,0l0 0c0,0 0,0 0,0l0 0z"/>
   <path class="fil1" d="M12 19l0 0c0,1 0,0 0,0 0,0 0,0 0,0l0 0c0,0 0,0 0,0z"/>
   <path class="fil1" d="M7 22c1,0 1,0 1,-1 0,0 -1,0 -1,1z"/>
   <path class="fil1" d="M34 17c0,-1 0,0 0,-1 -1,0 -1,1 0,1z"/>
   <path class="fil1" d="M33 17c0,-1 0,-1 -1,-1 0,1 0,1 1,1z"/>
   <path class="fil1" d="M10 17l0 0c0,0 0,0 0,1 0,0 0,0 0,-1z"/>
   <path class="fil1" d="M30 15l0 0 1 0 0 0c-1,0 -1,0 -1,0l0 0z"/>
   <path class="fil1" d="M14 19c-1,0 -1,1 -1,1 0,0 1,0 1,-1z"/>
   <path class="fil1" d="M17 17c0,1 0,0 0,0 0,0 0,0 0,0z"/>
   <path class="fil1" d="M19 16l0 0 0 0c-1,0 -1,0 -1,0 0,0 0,0 1,0z"/>
   <path class="fil1" d="M32 13c0,1 0,1 0,1 0,-1 0,-1 0,-1 0,0 0,0 0,0l0 0z"/>
   <path class="fil1" d="M39 20l0 0 1 0c0,0 -1,0 -1,0 0,0 0,0 0,0z"/>
   <path class="fil1" d="M30 14c0,0 0,0 -1,0 0,0 0,0 1,0z"/>
   <path class="fil1" d="M9 20c0,0 0,0 0,0 0,0 0,0 1,0 0,0 0,0 0,0 0,0 -1,0 -1,0z"/>
   <path class="fil1" d="M35 16l0 0 0 0c0,1 0,1 0,1 0,0 0,0 0,-1z"/>
   <path class="fil1" d="M18 18c0,0 0,0 0,-1 0,0 0,0 0,0l0 1z"/>
   <path class="fil1" d="M34 16c0,-1 0,-1 0,-1 0,1 0,1 0,1z"/>
   <path class="fil1" d="M40 19c0,-1 0,-1 -1,-1 0,1 0,1 1,1z"/>
   <path class="fil1" d="M20 16c0,0 0,0 0,-1 0,0 -1,0 0,1z"/>
   <path class="fil1" d="M42 20c0,0 0,0 -1,0 0,0 1,0 1,0z"/>
   <path class="fil1" d="M17 15c0,0 0,0 0,0 0,0 0,0 0,0z"/>
   <path class="fil1" d="M10 19c0,0 1,0 1,-1 -1,0 -1,0 -1,1z"/>
   <path class="fil1" d="M36 17c0,0 0,0 0,0 0,0 0,0 0,0 1,0 0,0 0,0z"/>
   <path class="fil1" d="M38 19l0 0c0,0 0,0 1,0 0,-1 -1,-1 -1,-1l0 1z"/>
   <path class="fil1" d="M10 21c1,1 1,0 1,0 -1,0 -1,0 -1,0z"/>
   <path class="fil1" d="M40 17c-1,0 0,1 0,1 0,-1 0,-1 0,-1z"/>
   <path class="fil1" d="M12 18c1,0 1,0 1,-1 -1,0 -1,0 -1,1z"/>
   <path class="fil1" d="M18 15c0,0 0,0 0,-1 0,0 0,1 0,1z"/>
   <path class="fil1" d="M19 13c0,0 0,0 0,0 0,0 0,0 0,0z"/>
   <path class="fil1" d="M21 16c0,0 0,0 1,0 -1,0 -1,0 -1,0z"/>
   <path class="fil1" d="M8 20c0,0 1,0 1,0 -1,0 -1,0 -1,0z"/>
   <path class="fil1" d="M41 19c0,0 0,0 0,0l0 0c0,-1 0,-1 -1,-1 0,1 0,1 1,1z"/>
   <path class="fil1" d="M11 18l0 1c1,0 1,0 1,-1 0,0 0,0 -1,0z"/>
   <path class="fil1 str0" d="M38 16c0,1 0,1 1,1 0,0 0,-1 -1,-1z"/>
   <path class="fil1" d="M12 16c1,1 1,0 1,0 -1,0 -1,0 -1,0z"/>
   <path class="fil1" d="M37 18c0,1 0,0 0,1l0 0c0,-1 0,-1 0,-1 0,0 0,0 0,0z"/>
   <path class="fil1" d="M9 21c1,0 1,0 1,0 -1,0 -1,0 -1,0z"/>
   <path class="fil1" d="M37 20c0,0 0,-1 -1,-1 0,1 0,1 1,1z"/>
   <path class="fil1" d="M21 14c1,0 1,0 1,-1 -1,0 -1,0 -1,1z"/>
   <path class="fil1" d="M34 17c0,1 0,1 0,1 0,0 0,-1 0,-1z"/>
   <path class="fil1" d="M11 17c0,0 1,0 1,-1 -1,0 -1,1 -1,1z"/>
   <path class="fil1" d="M16 16c0,1 0,0 0,0 0,0 0,0 0,0z"/>
   <path class="fil1" d="M37 17c0,1 0,1 1,1 0,-1 0,-1 -1,-1z"/>
   <path class="fil1" d="M41 20l-1 0c0,0 0,0 0,0l0 0c0,0 0,0 1,0z"/>
   <path class="fil1" d="M17 14l0 0 1 0 0 -1c0,0 0,0 -1,1z"/>
   <path class="fil1" d="M11 20l0 0 0 0c0,0 -1,0 -1,0l1 0z"/>
   <path class="fil1" d="M17 16l0 0c0,0 0,0 1,0l-1 0 0 0z"/>
   <path class="fil1" d="M37 16c0,1 0,1 1,0 0,0 0,0 0,0l-1 0c0,0 0,0 0,0l0 0 0 0c0,0 0,0 0,0z"/>
   <path class="fil1 str0" d="M38 16c-1,0 0,0 -1,0l0 0c0,0 0,0 0,0l1 0z"/>
  </g>
 </g>
</svg>
